<?xml version="1.0" standalone="no"?>
<!DOCTYPE svg PUBLIC "-//W3C//DTD SVG 20010904//EN"
 "http://www.w3.org/TR/2001/REC-SVG-20010904/DTD/svg10.dtd">
<svg version="1.0" xmlns="http://www.w3.org/2000/svg"
 width="512.000000pt" height="512.000000pt" viewBox="0 0 512.000000 512.000000"
 preserveAspectRatio="xMidYMid meet">
<metadata>
Created by potrace 1.14, written by Peter Selinger 2001-2017
</metadata>
<g transform="translate(0.000000,512.000000) scale(0.100000,-0.100000)"
fill="#000000" stroke="none">
<path d="M3798 5103 c-63 -19 -139 -88 -167 -154 -45 -103 -22 -225 57 -302
174 -170 466 -48 465 194 0 185 -175 314 -355 262z"/>
<path d="M2526 4922 c-2 -1 -25 -3 -51 -4 l-48 -1 7 -86 c17 -221 21 -245 34
-237 5 3 30 6 58 7 51 2 88 15 80 27 -4 7 -8 41 -22 202 -7 87 -11 99 -35 97
-11 -1 -21 -3 -23 -5z"/>
<path d="M3140 4808 c-170 -290 -359 -529 -480 -609 -39 -26 -51 -29 -90 -24
-140 20 -329 172 -495 400 -43 58 -80 103 -83 100 -7 -6 -7 -8 -17 -100 -13
-132 -16 -147 -45 -262 -26 -102 -87 -250 -122 -294 -10 -12 -23 -15 -58 -10
-67 10 -122 -4 -221 -54 l-89 -45 -21 42 c-88 174 -237 252 -409 213 -62 -13
-129 -52 -125 -72 15 -70 45 -222 49 -243 2 -14 12 -60 22 -103 13 -59 14 -81
6 -89 -7 -7 -72 -44 -145 -83 -73 -38 -140 -75 -150 -81 -17 -10 -14 -19 41
-121 55 -104 74 -143 69 -143 -1 0 -28 -4 -59 -9 -88 -15 -294 -25 -509 -26
-146 0 -195 -3 -192 -12 3 -6 10 -13 16 -16 14 -5 172 -123 242 -181 150 -124
299 -275 356 -363 58 -88 59 -125 6 -205 -80 -120 -266 -297 -479 -457 l-89
-66 93 -13 c91 -12 253 -38 293 -46 224 -48 416 -120 448 -169 11 -17 15 -43
13 -88 -6 -151 -94 -394 -268 -743 l-80 -159 49 29 c474 279 792 427 968 449
63 8 107 -53 175 -244 35 -97 107 -372 124 -471 3 -19 8 -46 11 -60 3 -14 9
-51 15 -84 9 -55 16 -75 23 -65 2 2 29 49 62 104 162 277 357 521 473 592 119
73 368 -93 582 -389 44 -61 80 -106 81 -102 0 5 2 16 3 24 2 8 6 44 10 80 4
36 9 79 11 95 3 17 7 46 10 65 22 158 108 364 182 437 59 60 96 71 209 67 154
-5 291 -32 508 -100 43 -13 81 -23 83 -20 2 2 -7 42 -21 87 -59 194 -81 331
-81 496 0 104 2 113 24 137 22 23 106 58 171 70 14 3 36 7 50 10 14 3 50 8 80
12 30 3 66 7 80 9 61 11 243 18 442 19 120 1 218 3 218 6 0 3 -26 23 -58 45
-111 77 -302 237 -399 333 -110 110 -125 127 -170 196 -77 116 -53 168 178
397 94 93 247 221 373 312 16 12 6 15 -85 27 -57 8 -106 14 -109 15 -3 1 -30
5 -60 9 -180 26 -426 98 -512 150 -44 26 -54 37 -62 71 -27 114 72 411 266
798 43 88 75 157 71 154 -4 -2 -78 -45 -163 -95 -85 -49 -220 -123 -300 -164
-147 -75 -216 -107 -362 -166 -45 -18 -150 -44 -191 -47 -43 -3 -70 23 -111
104 -43 85 -121 328 -150 471 -21 103 -55 273 -62 313 l-9 47 -55 -92z"/>
<path d="M1067 4839 c-32 -22 -57 -42 -57 -44 0 -2 35 -54 78 -117 42 -62 133
-197 202 -300 l125 -186 36 20 c20 11 49 30 63 42 l27 21 -203 302 c-112 166
-206 303 -209 303 -3 0 -31 -18 -62 -41z"/>
<path d="M257 4699 c-134 -30 -242 -157 -251 -295 -16 -260 262 -433 487 -301
167 98 210 317 93 474 -73 97 -210 148 -329 122z"/>
<path d="M4782 3877 c-58 -36 -234 -145 -299 -186 l-42 -26 40 -63 c34 -53 42
-61 58 -52 14 7 369 227 378 234 4 3 -71 126 -77 126 -3 -1 -29 -15 -58 -33z"/>
<path d="M167 3799 c-21 -34 -36 -63 -35 -64 6 -5 233 -151 270 -173 l37 -23
40 63 39 62 -46 31 c-99 64 -259 165 -263 165 -2 0 -21 -28 -42 -61z"/>
<path d="M4411 1558 l-39 -62 116 -76 c155 -100 192 -123 196 -119 20 25 78
121 75 123 -6 5 -228 148 -271 174 l-37 23 -40 -63z"/>
<path d="M570 1567 c-8 -7 -94 -62 -190 -122 -96 -60 -177 -110 -178 -111 -3
-2 62 -110 74 -123 3 -3 59 30 169 99 13 8 71 44 128 79 l105 64 -30 51 c-48
82 -53 86 -78 63z"/>
<path d="M4740 1059 c-73 -12 -120 -37 -180 -98 -42 -43 -61 -72 -74 -114 -90
-287 197 -530 463 -393 39 21 107 89 128 130 45 86 48 205 8 289 -66 137 -198
208 -345 186z"/>
<path d="M3640 890 c-30 -21 -54 -44 -52 -50 1 -6 84 -133 185 -281 100 -148
187 -279 193 -289 6 -11 14 -23 17 -26 4 -4 106 54 126 72 5 5 -401 614 -409
613 -3 -1 -30 -18 -60 -39z"/>
<path d="M1193 549 c-96 -17 -188 -98 -214 -186 -53 -184 73 -356 261 -356
113 -1 196 54 247 162 92 194 -80 417 -294 380z"/>
<path d="M2649 526 c-2 -2 -33 -6 -69 -9 -36 -3 -66 -6 -68 -7 -2 0 -1 -3 2
-8 2 -4 7 -42 10 -84 9 -109 16 -180 22 -206 4 -21 8 -22 52 -16 26 4 58 6 71
6 l24 -2 -7 97 c-4 54 -9 112 -11 128 -2 17 -5 45 -7 63 -2 31 -10 46 -19 38z"/>
</g>
</svg>
