<svg height="101" viewBox="0 0 101 101" width="101" xmlns="http://www.w3.org/2000/svg" xmlns:xlink="http://www.w3.org/1999/xlink"><linearGradient id="a"><stop offset="0" stop-color="#0090ff"/><stop offset="1" stop-color="#7c00ff"/></linearGradient><linearGradient id="b" x1="50.393827%" x2="50.393827%" xlink:href="#a" y1=".576829%" y2="99.709756%"/><linearGradient id="c" x1="49.880999%" x2="49.880999%" xlink:href="#a" y1="-.046047%" y2="100.222299%"/><g fill="none"><path d="m13 87.5487805 1.382716 1.4512195 14.617284-15.3414634-1.382716-1.6585366z" fill="url(#b)"/><path d="m95.3556907 65.9753545c-4.6589079-4.8589104-11.5459891-6.8834563-18.0279479-5.2638196l-15.7997746-15.7914586 18.6356316-18.6258231 6.4819588-2.2270006 9.5203769-9.5153661-9.9254994-9.92027529-9.5203769 9.51536609-2.2281734 6.4785472-18.6356315 18.4233684-15.5972134-15.3865495c1.6204897-6.2760925-.4051224-13.3620034-5.0640303-18.0184592-5.6717139-5.66872875-14.5844072-7.28836554-21.8766109-3.84663737l-1.2153673.6073638 13.1664788 13.15954887c1.0128061 1.012273 1.4179285 2.2270006 1.4179285 3.6441828s-.6076836 2.6319098-1.4179285 3.6441828c-1.8230509 1.8220913-5.2665915 1.8220913-7.0896424 0l-13.1664788-13.15954893-.60768363 1.21472763c-3.44354061 7.4908201-2.02561213 16.3988224 3.84866303 21.8650966 4.6589079 4.6564557 11.7485503 6.6810017 18.0279479 5.0613649l15.7997746 15.7914587-3.4435407 3.036819-6.4819587-6.4785472-5.671714 5.6687288.8102449.8098184c.6076836.6073638 1.012806 1.6196368 1.012806 2.4294552 0 1.0122729-.4051224 1.8220913-1.012806 2.4294551-.6076837.6073638-1.6204897 1.012273-2.4307346 1.012273-1.012806 0-1.8230509-.4049092-2.4307345-1.012273l-.8102449-.8098184-17.82538667 17.8160047c-5.06403031 5.0613649-5.06403031 13.5644581 0 18.625823 2.43073455 2.4294552 5.87427516 3.8466374 9.31781577 3.8466374 3.4435406 0 6.8870812-1.4171822 9.3178158-3.8466374l17.8253866-17.8160046-.6076836-.8098184c-1.2153673-1.4171822-1.2153673-3.6441828 0-5.061365.6076836-.6073638 1.6204897-1.012273 2.4307346-1.012273.8102448 0 1.8230509.4049092 2.4307345 1.012273l.8102449.8098184 5.6717139-5.6687287-6.68452-6.2760926 3.0384182-3.036819 15.7997745 15.7914587c-1.6204897 6.2760926.4051225 13.3620035 5.0640303 18.0184593 3.6461019 3.6441827 8.7101322 5.6687287 13.7741625 5.6687287 2.835857 0 5.6717139-.6073638 8.1024485-1.8220914l1.2153673-.6073638-13.1664788-13.3620034c-2.0256122-2.024546-2.0256122-5.2638196 0-7.085911 2.0256121-2.024546 5.2665915-2.024546 7.0896424 0l13.1664788 13.3620035.6076836-1.2147276c3.6461015-7.6932747 2.2281735-16.6012771-3.6461018-22.0675512zm-69.4784958-30.1657352c-5.671714 1.6196368-12.356234-.2024546-16.61001944-4.4540011-4.86146909-4.6564558-6.48195879-11.9448213-4.05122424-18.2209139l11.14086668 11.1350029c2.835857 2.8343644 7.2922036 2.8343644 9.9254994 0 2.835857-2.8343643 2.835857-7.2883655 0-9.9202753l-11.1408667-11.13500288c6.2793976-2.22700058 13.5716012-.80981839 18.2305091 4.04909197 4.4563467 4.45400111 6.0768364 10.93254831 4.4563467 16.60127701v.4049092l16.4074582 16.3988225-11.3434279 11.3374575-16.4074582-16.3988225zm19.0407539 35.8344639c-.8102448-.6073637-2.0256121-1.0122729-3.2409794-1.0122729-1.4179285 0-2.8358569.6073637-3.848663 1.6196367-1.8230509 1.8220914-2.0256121 4.8589104-.6076836 7.085911l-16.6100194 16.601277c-2.0256122 2.024546-4.8614691 3.2392736-7.8998873 3.2392736-3.03841821 0-5.87427518-1.2147276-7.89988731-3.2392736-4.25378546-4.2515465-4.25378546-11.3374575 0-15.7914586l16.61001941-16.6012771c1.0128061.6073638 2.0256121 1.012273 3.2409794 1.012273 1.4179285 0 2.835857-.6073638 3.848663-1.6196368 1.0128061-1.012273 1.6204897-2.4294552 1.6204897-4.0490919 0-1.2147276-.4051224-2.2270006-1.012806-3.036819l2.8358569-2.8343644 15.7997746 15.7914587zm31.1944267-49.8038311 2.2281734-6.4785472 7.697326-7.69327472 7.0896425 7.08591092-7.6973261 7.6932748-6.4819588 2.2270005-36.0558958 36.2393731-2.835857-2.8343643zm21.876611 63.7731984-11.1408667-11.1350029c-2.835857-2.8343644-7.2922037-2.8343644-9.9254994 0-2.6332958 2.8343644-2.835857 7.2883656 0 9.9202753l11.1408667 11.1350029c-6.2793976 2.2270006-13.5716013.8098184-18.2305092-4.0490919-4.4563466-4.2515466-6.0768363-10.9325483-4.4563466-16.6012771l.2025612-.6073638-16.4074582-16.3988224 11.3434279-11.3374575 16.4074582 16.3988224.6076836-.2024546c5.8742752-1.6196368 12.356234 0 16.6100194 4.4540012 4.6589079 4.8589103 6.2793976 12.1472759 3.8486631 18.4233684z" fill="url(#c)"/></g></svg>